<svg width="16" height="27" viewBox="0 0 16 27" fill="none" xmlns="http://www.w3.org/2000/svg">
<path d="M1.49396 4.45842C2.0758 2.41243 2.96367 1 2.96367 1L1.49396 4.45842Z" fill="white" fill-opacity="0.7"/>
<path d="M1.49396 4.45842C2.0758 2.41243 2.96367 1 2.96367 1" stroke="#7EC6B3" stroke-miterlimit="10" stroke-linecap="round"/>
<path d="M2.96349 25.8874C2.96349 25.8874 7.3835 19.532 2.96349 13.4437C1.52533 11.6825 1.02307 9.75032 1 7.94434" fill="white" fill-opacity="0.7"/>
<path d="M2.96349 25.8874C2.96349 25.8874 7.3835 19.532 2.96349 13.4437C1.52533 11.6825 1.02307 9.75032 1 7.94434" stroke="#7EC6B3" stroke-miterlimit="10" stroke-linecap="round"/>
<path d="M7.91471 26.0001C7.91471 26.0001 12.335 19.6447 7.91471 13.5563C3.49496 8.14366 7.91471 1.11255 7.91471 1.11255" fill="white" fill-opacity="0.7"/>
<path d="M7.91471 26.0001C7.91471 26.0001 12.335 19.6447 7.91471 13.5563C3.49496 8.14366 7.91471 1.11255 7.91471 1.11255" stroke="#7EC6B3" stroke-miterlimit="10" stroke-linecap="round"/>
<path d="M12.8667 25.8875C12.8667 25.8875 17.287 19.5321 12.8667 13.4438C8.44693 8.03113 12.8667 1 12.8667 1" fill="white" fill-opacity="0.7"/>
<path d="M12.8667 25.8875C12.8667 25.8875 17.287 19.5321 12.8667 13.4438C8.44693 8.03113 12.8667 1 12.8667 1" stroke="#7EC6B3" stroke-miterlimit="10" stroke-linecap="round"/>
</svg>
