<?xml version="1.0" encoding="utf-8"?>
<!-- Generator: Adobe Illustrator 24.1.2, SVG Export Plug-In . SVG Version: 6.00 Build 0)  -->
<svg version="1.1" id="Layer_1" xmlns="http://www.w3.org/2000/svg" xmlns:xlink="http://www.w3.org/1999/xlink" x="0px" y="0px"
	 viewBox="0 0 34 34" style="enable-background:new 0 0 34 34;" xml:space="preserve">
<style type="text/css">
	.st0{fill:none;stroke:#7EC6B3;}
</style>
<circle class="st0" cx="17" cy="17" r="11"/>
<path class="st0" d="M14.9,1.8c1.2-1.1,3-1.1,4.3,0c1,0.9,2.3,1.2,3.6,1c1.6-0.3,3.2,0.6,3.7,2.1c0.4,1.2,1.4,2.2,2.7,2.7
	c1.5,0.5,2.4,2.1,2.1,3.7c-0.3,1.3,0.1,2.6,1,3.6c1.1,1.2,1.1,3,0,4.3c-0.9,1-1.2,2.3-1,3.6c0.3,1.6-0.6,3.2-2.1,3.7
	c-1.2,0.4-2.2,1.4-2.7,2.7c-0.5,1.5-2.1,2.4-3.7,2.1c-1.3-0.3-2.6,0.1-3.6,1c-1.2,1.1-3,1.1-4.3,0c-1-0.9-2.3-1.2-3.6-1
	c-1.6,0.3-3.2-0.6-3.7-2.1c-0.4-1.2-1.4-2.2-2.7-2.7c-1.5-0.5-2.4-2.1-2.1-3.7c0.3-1.3-0.1-2.6-1-3.6c-1.1-1.2-1.1-3,0-4.3
	c0.9-1,1.2-2.3,1-3.6C2.4,9.6,3.3,8.1,4.9,7.5c1.2-0.4,2.2-1.4,2.7-2.7c0.5-1.5,2.1-2.4,3.7-2.1C12.5,3,13.9,2.6,14.9,1.8z"/>
<path class="st0" d="M16.4,11c0.4-0.3,0.9-0.3,1.3,0c0.5,0.4,1.2,0.6,1.8,0.5c0.5-0.1,1,0.2,1.1,0.6c0.2,0.6,0.7,1.1,1.3,1.3
	c0.5,0.1,0.8,0.6,0.6,1.1c-0.1,0.6,0,1.3,0.5,1.8c0.3,0.4,0.3,0.9,0,1.3c-0.4,0.5-0.6,1.2-0.5,1.8c0.1,0.5-0.2,1-0.6,1.1
	c-0.6,0.2-1.1,0.7-1.3,1.3c-0.1,0.5-0.6,0.8-1.1,0.6c-0.6-0.1-1.3,0-1.8,0.5c-0.4,0.3-0.9,0.3-1.3,0c-0.5-0.4-1.2-0.6-1.8-0.5
	c-0.5,0.1-1-0.2-1.1-0.6c-0.2-0.6-0.7-1.1-1.3-1.3c-0.5-0.1-0.8-0.6-0.6-1.1c0.1-0.6,0-1.3-0.5-1.8c-0.3-0.4-0.3-0.9,0-1.3
	c0.4-0.5,0.6-1.2,0.5-1.8c-0.1-0.5,0.2-1,0.6-1.1c0.6-0.2,1.1-0.7,1.3-1.3c0.1-0.5,0.6-0.8,1.1-0.6C15.2,11.6,15.9,11.4,16.4,11z"/>
</svg>
