<svg width="33" height="27" viewBox="0 0 33 27" fill="none" xmlns="http://www.w3.org/2000/svg">
<path d="M27.1704 21.0248C29.7646 20.255 31.6573 17.8531 31.6573 15.0091C31.6573 11.5441 28.8483 8.73537 25.3835 8.73537C25.1035 8.73537 24.8286 8.75569 24.5584 8.79126C24.2539 4.4379 20.6279 1 16.197 1C12.7365 1 9.76601 3.09679 8.48558 6.0887C4.34139 6.14939 1 9.52577 1 13.6844C1 17.7495 4.19235 21.0697 8.20754 21.2732C8.3371 21.2797 8.46724 21.2831 8.5985 21.2831" fill="white" fill-opacity="0.7"/>
<path d="M27.1704 21.0248C29.7646 20.255 31.6573 17.8531 31.6573 15.0091C31.6573 11.5441 28.8483 8.73537 25.3835 8.73537C25.1035 8.73537 24.8286 8.75569 24.5584 8.79126C24.2539 4.4379 20.6279 1 16.197 1C12.7365 1 9.76601 3.09679 8.48558 6.0887C4.34139 6.14939 1 9.52577 1 13.6844C1 17.7495 4.19235 21.0697 8.20754 21.2732C8.3371 21.2797 8.46724 21.2831 8.5985 21.2831" stroke="#7EC6B3" stroke-miterlimit="10" stroke-linecap="round"/>
<path d="M20.926 26.0001C28.4119 26.0001 20.926 15.1833 20.926 15.1833C20.926 15.1833 13.4405 26.0001 20.926 26.0001Z" fill="white" fill-opacity="0.7" stroke="#7EC6B3" stroke-miterlimit="10" stroke-linecap="round"/>
<path d="M11.5314 21.2832H13.2516" stroke="#7EC6B3" stroke-miterlimit="10" stroke-linecap="round"/>
</svg>
