<svg width="33" height="27" viewBox="0 0 33 27" fill="none" xmlns="http://www.w3.org/2000/svg">
<path d="M28.8673 20.9968C30.9174 19.9278 32.3171 17.7828 32.3171 15.3108C32.3171 11.7712 29.4476 8.90196 25.9082 8.90196C25.622 8.90196 25.3413 8.9226 25.0654 8.95899C24.7542 4.51193 21.0506 1 16.5243 1C12.989 1 9.95497 3.14181 8.64703 6.19838C4.41338 6.26029 1 9.70922 1 13.9575C1 16.6367 2.35763 18.999 4.42232 20.3941" fill="white" fill-opacity="0.7"/>
<path d="M28.8673 20.9968C30.9174 19.9278 32.3171 17.7828 32.3171 15.3108C32.3171 11.7712 29.4476 8.90196 25.9082 8.90196C25.622 8.90196 25.3413 8.9226 25.0654 8.95899C24.7542 4.51193 21.0506 1 16.5243 1C12.989 1 9.95497 3.14181 8.64703 6.19838C4.41338 6.26029 1 9.70922 1 13.9575C1 16.6367 2.35763 18.999 4.42232 20.3941" stroke="#7EC6B3" stroke-miterlimit="10" stroke-linecap="round"/>
<path d="M6.6438 25.8559L9.95478 20.6013" stroke="#7EC6B3" stroke-miterlimit="10" stroke-linecap="round"/>
<path d="M13.6196 25.3495L16.9306 20.095" stroke="#7EC6B3" stroke-miterlimit="10" stroke-linecap="round"/>
<path d="M22.4039 22.5254L24.5014 19.4685" stroke="#7EC6B3" stroke-miterlimit="10" stroke-linecap="round"/>
<path d="M20.0024 25.9998L20.8946 24.6995" stroke="#7EC6B3" stroke-miterlimit="10" stroke-linecap="round"/>
</svg>
