<svg width="42" height="42" viewBox="0 0 42 42" fill="none" xmlns="http://www.w3.org/2000/svg">
<path d="M19.0587 3.16037L21 0.789282L22.9413 3.16037C24.2194 4.72147 26.3512 5.29269 28.2386 4.5798L31.1054 3.497L31.601 6.52106C31.9273 8.51206 33.4879 10.0727 35.4789 10.399L38.503 10.8946L37.4202 13.7614C36.7073 15.6488 37.2785 17.7806 38.8396 19.0587L41.2107 21L38.8396 22.9413C37.2785 24.2194 36.7073 26.3512 37.4202 28.2386L38.503 31.1054L35.4789 31.601C33.4879 31.9273 31.9273 33.4879 31.601 35.4789L31.1054 38.503L28.2386 37.4202C26.3512 36.7073 24.2194 37.2785 22.9413 38.8396L21 41.2107L19.0587 38.8396C17.7806 37.2785 15.6488 36.7073 13.7614 37.4202L10.8946 38.503L10.399 35.4789C10.0727 33.4879 8.51206 31.9273 6.52107 31.601L3.497 31.1054L4.5798 28.2386C5.29269 26.3512 4.72147 24.2194 3.16037 22.9413L0.789281 21L3.16037 19.0587C4.72147 17.7806 5.29269 15.6488 4.5798 13.7614L3.497 10.8946L6.52106 10.399C8.51206 10.0727 10.0727 8.51206 10.399 6.52107L10.8946 3.497L13.7614 4.5798C15.6488 5.29269 17.7806 4.72147 19.0587 3.16037Z" fill="#FFB800" stroke="#FFAE50"/>
<path d="M34.4993 21C34.4993 28.4558 28.4551 34.5 20.9993 34.5C13.5434 34.5 7.49925 28.4558 7.49925 21C7.49925 13.5442 13.5434 7.5 20.9993 7.5C28.4551 7.5 34.4993 13.5442 34.4993 21Z" fill="#FFE600" stroke="#FFC700"/>
</svg>
