<svg width="41" height="38" viewBox="0 0 41 38" fill="none" xmlns="http://www.w3.org/2000/svg">
<path d="M14.1685 2.41561L15.5 0.789281L16.8315 2.41561C17.8105 3.61134 19.4434 4.04888 20.8891 3.50283L22.8554 2.76014L23.1953 4.83435C23.4453 6.35937 24.6406 7.55473 26.1657 7.80468L28.2399 8.14464L27.4972 10.1109C26.9511 11.5566 27.3887 13.1895 28.5844 14.1685L30.2107 15.5L28.5844 16.8315C27.3887 17.8105 26.9511 19.4434 27.4972 20.8891L28.2399 22.8554L26.1657 23.1953C24.6406 23.4453 23.4453 24.6406 23.1953 26.1657L22.8554 28.2399L20.8891 27.4972C19.4434 26.9511 17.8105 27.3887 16.8315 28.5844L15.5 30.2107L14.1685 28.5844C13.1895 27.3887 11.5566 26.9511 10.1109 27.4972L8.14464 28.2399L7.80468 26.1657C7.55473 24.6406 6.35937 23.4453 4.83435 23.1953L2.76014 22.8554L3.50283 20.8891C4.04888 19.4434 3.61134 17.8105 2.41561 16.8315L0.789281 15.5L2.41561 14.1685C3.61134 13.1895 4.04888 11.5566 3.50283 10.1109L2.76014 8.14464L4.83435 7.80468C6.35936 7.55473 7.55473 6.35937 7.80468 4.83435L8.14464 2.76014L10.1109 3.50283C11.5566 4.04888 13.1895 3.61134 14.1685 2.41561Z" fill="#FFB800" stroke="#FFAE50"/>
<path d="M24.5 15.5C24.5 21.0461 20.224 25.5 15 25.5C9.776 25.5 5.5 21.0461 5.5 15.5C5.5 9.95388 9.776 5.5 15 5.5C20.224 5.5 24.5 9.95388 24.5 15.5Z" fill="#FFE600" stroke="#FFC700"/>
<path d="M36.8673 31.9968C38.9174 30.9278 40.3171 28.7828 40.3171 26.3108C40.3171 22.7712 37.4476 19.902 33.9082 19.902C33.622 19.902 33.3413 19.9226 33.0654 19.959C32.7542 15.5119 29.0506 12 24.5243 12C20.989 12 17.955 14.1418 16.647 17.1984C12.4134 17.2603 9 20.7092 9 24.9575C9 27.6367 10.3576 29.999 12.4223 31.3941" fill="white" fill-opacity="0.7"/>
<path d="M36.8673 31.9968C38.9174 30.9278 40.3171 28.7828 40.3171 26.3108C40.3171 22.7712 37.4476 19.902 33.9082 19.902C33.622 19.902 33.3413 19.9226 33.0654 19.959C32.7542 15.5119 29.0506 12 24.5243 12C20.989 12 17.955 14.1418 16.647 17.1984C12.4134 17.2603 9 20.7092 9 24.9575C9 27.6367 10.3576 29.999 12.4223 31.3941" stroke="#7EC6B3" stroke-miterlimit="10" stroke-linecap="round"/>
<path d="M14.6438 36.8559L17.9548 31.6013" stroke="#7EC6B3" stroke-miterlimit="10" stroke-linecap="round"/>
<path d="M21.6196 36.3495L24.9306 31.095" stroke="#7EC6B3" stroke-miterlimit="10" stroke-linecap="round"/>
<path d="M30.4039 33.5254L32.5015 30.4685" stroke="#7EC6B3" stroke-miterlimit="10" stroke-linecap="round"/>
<path d="M28.0024 36.9998L28.8946 35.6995" stroke="#7EC6B3" stroke-miterlimit="10" stroke-linecap="round"/>
</svg>
