<svg width="32" height="27" viewBox="0 0 32 27" fill="none" xmlns="http://www.w3.org/2000/svg">
<path d="M1 11.0654H19.327" stroke="#7EC6B3" stroke-miterlimit="10" stroke-linecap="round"/>
<path d="M19.3268 11.0654C22.1062 11.0654 24.3597 8.81223 24.3597 6.03285C24.3597 3.25347 22.1062 1 19.3268 1" fill="white" fill-opacity="0.7"/>
<path d="M19.3268 11.0654C22.1062 11.0654 24.3597 8.81223 24.3597 6.03285C24.3597 3.25347 22.1062 1 19.3268 1" stroke="#7EC6B3" stroke-miterlimit="10" stroke-linecap="round"/>
<path d="M7.9873 15.9347H25.6251" stroke="#7EC6B3" stroke-miterlimit="10" stroke-linecap="round"/>
<path d="M25.6248 15.9347C28.4042 15.9347 30.6574 18.1878 30.6574 20.9672C30.6574 23.7469 28.4042 26 25.6248 26" fill="white" fill-opacity="0.7"/>
<path d="M25.6248 15.9347C28.4042 15.9347 30.6574 18.1878 30.6574 20.9672C30.6574 23.7469 28.4042 26 25.6248 26" stroke="#7EC6B3" stroke-miterlimit="10" stroke-linecap="round"/>
<path d="M1 15.9347H3.90871" stroke="#7EC6B3" stroke-miterlimit="10" stroke-linecap="round"/>
<path d="M1 21.414H13.1988" stroke="#7EC6B3" stroke-miterlimit="10" stroke-linecap="round"/>
</svg>
