<svg width="36" height="38" viewBox="0 0 36 38" fill="none" xmlns="http://www.w3.org/2000/svg">
<path fill-rule="evenodd" clip-rule="evenodd" d="M33.7454 12.3532L33.0494 12.9733L33.7188 13.6202C35.1186 14.9728 35.3563 17.1411 34.1835 18.7638C33.0108 20.3863 30.8212 20.9188 29.0236 20.1169L28.1637 19.7333L27.8011 20.5782C27.6878 20.8421 27.5432 21.099 27.3659 21.3444C26.0487 23.1668 23.451 23.6131 21.5637 22.3412C20.4463 21.5882 19.828 20.4026 19.7835 19.1787L19.7411 18.0098L18.5903 18.3745C17.3853 18.7563 16.0196 18.6048 14.9023 17.8518C13.015 16.58 12.5528 14.0717 13.8699 12.2493C14.0472 12.0041 14.2469 11.7845 14.4643 11.5908L15.1605 10.9706L14.4908 10.3237C13.0905 8.97108 12.8526 6.80246 14.0256 5.17964C15.1984 3.55694 17.3883 3.02449 19.186 3.82676L20.0457 4.21041L20.4085 3.36566C20.5217 3.10199 20.6663 2.84531 20.8435 2.60015C22.1606 0.77779 24.7583 0.331498 26.6456 1.60333C27.7629 2.35627 28.3813 3.54179 28.4258 4.76561L28.4682 5.93444L29.6191 5.56974C30.8241 5.18787 32.1899 5.33937 33.3072 6.09234C35.1945 7.36417 35.6567 9.87251 34.3396 11.6949C34.1624 11.94 33.9627 12.1596 33.7454 12.3532ZM34.3626 12.999C34.4578 13.091 34.5487 13.1862 34.635 13.2841C36.0957 14.9404 36.2796 17.3992 34.9298 19.2667C33.5804 21.1338 31.1276 21.8153 29.0141 21.0636C28.8887 21.019 28.7645 20.9693 28.6419 20.9146C28.5907 21.0338 28.5344 21.1517 28.4728 21.2681C28.3679 21.4662 28.2477 21.6597 28.1122 21.8473C26.5074 24.0677 23.3423 24.6114 21.0428 23.0619C20.3696 22.6082 19.8452 22.0254 19.4805 21.3722C17.2819 22.5009 15.2749 23.0388 13.4546 23.1369C14.349 26.6524 14.5012 31.2736 13.3694 37.3436L12.4737 37.1879C13.6105 31.0911 13.4235 26.5434 12.5193 23.1489C11.9677 23.133 11.4343 23.0762 10.9192 22.9833C8.39652 22.5283 6.36415 21.2161 4.78515 19.6943C3.20712 18.1735 2.06574 16.4282 1.32035 15.0703C0.946882 14.3899 0.670911 13.8032 0.487812 13.3854C0.396226 13.1763 0.327773 13.0093 0.281886 12.8937C0.258939 12.8358 0.241629 12.7908 0.229881 12.7597L0.216423 12.7238L0.212804 12.714L0.211769 12.7111L0.211446 12.7102C0.211339 12.7099 0.21125 12.7097 0.640862 12.5649C0.640867 12.1255 0.641268 12.1255 0.641735 12.1255L0.64299 12.1255L0.646658 12.1255L0.658571 12.1256L0.70033 12.1264C0.735993 12.1272 0.787123 12.1289 0.85254 12.1321C0.983351 12.1385 1.17145 12.1512 1.40736 12.1764C1.87895 12.2266 2.54314 12.3267 3.32373 12.5261C4.8838 12.9245 6.9195 13.7226 8.8083 15.3222C10.6005 16.84 12.2308 19.0523 13.2119 22.268C14.9532 22.2058 16.9176 21.7032 19.1211 20.5613C19.0695 20.4079 19.0257 20.2523 18.9899 20.095C18.9237 19.8041 18.8848 19.5076 18.874 19.2094C18.5804 19.3025 18.2788 19.3695 17.9732 19.4098C16.7536 19.5707 15.4704 19.3063 14.3814 18.5725C12.082 17.0229 11.5188 13.9667 13.1236 11.7464C13.2589 11.5593 13.4052 11.3841 13.5611 11.221C13.6532 11.1247 13.7486 11.0327 13.8471 10.945C13.7513 10.8524 13.6599 10.7567 13.5731 10.6582C12.1133 9.00189 11.9298 6.5438 13.2793 4.67671C14.629 2.80926 17.0824 2.1278 19.1963 2.88028C19.3214 2.92483 19.4454 2.9744 19.5678 3.02905C19.6189 2.91006 19.6752 2.79235 19.7367 2.67621C19.8416 2.47819 19.9616 2.28473 20.0972 2.09722C21.702 -0.123132 24.867 -0.666891 27.1665 0.882701C28.2555 1.61658 28.9551 2.68837 29.2193 3.84926C29.2856 4.14014 29.3244 4.43662 29.3353 4.73478C29.6289 4.64175 29.9305 4.57473 30.2361 4.5344C31.4558 4.37344 32.739 4.63779 33.8281 5.37171C36.1275 6.9213 36.6907 9.97745 35.0859 12.1978C34.9502 12.3855 34.8035 12.5611 34.647 12.7246C34.5554 12.8203 34.4605 12.9118 34.3626 12.999ZM0.640862 12.5649L0.640867 12.1255L0 12.1255L0.21125 12.7097L0.640862 12.5649ZM11.0863 22.1195C11.4639 22.1875 11.8542 22.2347 12.2575 22.2579C11.3111 19.323 9.80378 17.3342 8.20821 15.9829C6.45115 14.4949 4.55316 13.7491 3.091 13.3756C2.37303 13.1922 1.76273 13.0993 1.33006 13.0523C1.50461 13.45 1.76808 14.0095 2.12447 14.6587C2.8444 15.9703 3.93589 17.6343 5.42806 19.0724C6.91926 20.5095 8.79441 21.7061 11.0863 22.1195Z" fill="#CBCBCB"/>
</svg>
