<svg width="48" height="51" viewBox="0 0 48 51" fill="none" xmlns="http://www.w3.org/2000/svg">
<path fill-rule="evenodd" clip-rule="evenodd" d="M30.6592 0.400005L31.0547 0.459383L31.1237 0L30.6592 4.94719e-06L30.6592 0.400005ZM24.3222 9.53504C24.2944 8.3803 24.3839 7.38102 24.5588 6.51596C24.5835 6.51725 24.6082 6.5184 24.6328 6.51941C26.4567 6.59489 27.7966 5.93627 28.7585 5.02076C29.7099 4.11525 30.2811 2.97007 30.614 2.06851C30.7813 1.6152 30.8908 1.21689 30.9587 0.930745C30.9927 0.787516 31.0163 0.67195 31.0317 0.591123C31.0393 0.550697 31.0449 0.518922 31.0487 0.496681L31.053 0.470566L31.0542 0.463067L31.0545 0.460744L31.0546 0.459942C31.0547 0.459643 31.0547 0.459383 30.6592 0.400005C30.6592 4.94719e-06 30.6588 5.06639e-06 30.6585 5.45382e-06L30.6576 7.39098e-06L30.6553 1.78218e-05L30.6482 8.12709e-05L30.6247 0.00050959C30.605 0.000978917 30.5773 0.0018827 30.5422 0.00362101C30.472 0.00709659 30.372 0.013915 30.2471 0.0272948C29.9976 0.0540307 29.6475 0.107109 29.2365 0.212663C28.4157 0.423455 27.3417 0.846288 26.3438 1.69608C25.341 2.55002 24.4447 3.80787 23.9422 5.64991C22.4429 5.42521 20.5635 4.67432 18.2214 3.08206L17.7716 3.74366C20.1415 5.3548 22.1146 6.17177 23.7604 6.43138C23.5838 7.33733 23.4958 8.36771 23.5228 9.53918C21.2701 9.48664 18.7077 9.60241 16.3709 10.1329C13.8309 10.7096 11.4891 11.7921 10.1405 13.7543C8.93582 15.5071 8.50177 17.8071 8.68181 20.1852C8.86212 22.5668 9.65988 25.0602 10.9615 27.2331C13.5232 31.51 18.1007 34.6224 23.8243 33.0491C29.548 34.6224 34.1255 31.51 36.6872 27.2331C37.9888 25.0602 38.7866 22.5668 38.9669 20.1852C39.1469 17.8071 38.7129 15.5071 37.5082 13.7543C36.1596 11.7921 33.8178 10.7096 31.2778 10.1329C29.0085 9.61775 26.5266 9.49368 24.3222 9.53504ZM23.5591 10.3566C23.6173 11.2521 23.7391 12.2237 23.9346 13.2776L24.7212 13.1317C24.533 12.117 24.4158 11.1869 24.3588 10.3344C26.5215 10.2949 28.9256 10.4185 31.1034 10.9129C33.5648 11.4717 35.6692 12.4885 36.8493 14.2055C37.9204 15.764 38.3399 17.8653 38.169 20.1218C37.9985 22.3748 37.2409 24.7492 36.0004 26.8203C33.5326 30.9402 29.2189 33.7816 23.8756 32.2333L23.8674 32.2055L23.8243 32.2183L23.7813 32.2055L23.773 32.2333C18.4298 33.7816 14.1161 30.9402 11.6483 26.8203C10.4078 24.7492 9.65023 22.3748 9.47965 20.1218C9.30881 17.8653 9.72833 15.764 10.7994 14.2055C11.9795 12.4885 14.0839 11.4717 16.5453 10.9129C18.8117 10.3984 21.323 10.2854 23.5525 10.3401L23.5531 10.3568C23.5551 10.3567 23.5571 10.3566 23.5591 10.3566ZM28.207 4.44126C27.4032 5.20622 26.2963 5.76506 24.7527 5.72308C25.2254 4.09305 26.0253 3.01805 26.8625 2.30516C27.7442 1.55436 28.6982 1.17688 29.4355 0.987517C29.7134 0.916139 29.9591 0.87188 30.1563 0.844457C30.0934 1.09585 29.9991 1.42394 29.8635 1.79145C29.5533 2.63172 29.0362 3.65204 28.207 4.44126Z" fill="#CBCBCB"/>
<path d="M10.634 50.338H16.5477C16.5477 46.3831 19.2018 41.9539 17.1835 39.2963C14.1821 35.3442 12.5054 31.9274 10.634 31.0075C9.03689 30.2224 7.48 32.3874 10.634 37.9068C10.9037 38.3788 10.634 39.0896 9.45298 37.7097C5.18407 32.722 4.52301 29.4305 5.31155 22.7283C5.65705 19.7917 2.13364 19.6187 1.56558 23.1225C-0.79934 37.7097 4.72086 41.2519 9.45298 44.2148C9.75574 44.4044 10.634 50.338 10.634 50.338Z" stroke="#CBCBCB" stroke-width="0.8"/>
<path d="M37.0988 50.338H31.1851C31.1851 46.3831 28.531 41.9539 30.5493 39.2963C33.5507 35.3442 35.2274 31.9274 37.0988 31.0075C38.6959 30.2224 40.2528 32.3874 37.0988 37.9068C36.8291 38.3788 37.0988 39.0896 38.2798 37.7097C42.5487 32.722 43.2098 29.4305 42.4212 22.7283C42.0757 19.7917 45.5991 19.6187 46.1672 23.1225C48.5321 37.7097 43.0119 41.2519 38.2798 44.2148C37.977 44.4044 37.0988 50.338 37.0988 50.338Z" stroke="#CBCBCB" stroke-width="0.8"/>
</svg>
