<svg width="79" height="56" viewBox="0 0 79 56" fill="none" xmlns="http://www.w3.org/2000/svg">
<g opacity="0.2">
<path fill-rule="evenodd" clip-rule="evenodd" d="M39.5 14.9618C40.7998 14.9243 42.3098 14.979 43.6865 15.2799C45.1158 15.5922 46.4738 16.1856 47.2648 17.2932L46.9396 17.5241L47.2648 17.2932C47.9691 18.2796 48.2152 19.5621 48.1125 20.8683C48.0095 22.1776 47.5546 23.5435 46.8146 24.7325C45.3635 27.0641 42.7596 28.7816 39.5 27.9395C36.2403 28.7816 33.6364 27.0641 32.1853 24.7325C31.4454 23.5435 30.9905 22.1776 30.8875 20.8683C30.7847 19.5621 31.0308 18.2796 31.7352 17.2932L32.0603 17.5241L31.7352 17.2932C32.5262 16.1856 33.8842 15.5922 35.3134 15.2799C36.6902 14.979 38.2001 14.9243 39.5 14.9618ZM39.5 15.7621C39.548 15.7635 39.5958 15.7651 39.6433 15.7668L39.6437 15.7582C40.8819 15.7283 42.2717 15.7882 43.5207 16.0612C44.8778 16.3577 45.9968 16.8899 46.6145 17.7549C47.178 18.544 47.4074 19.6216 47.3147 20.8003C47.2222 21.976 46.8106 23.2201 46.1343 24.3067C44.7819 26.4799 42.4298 27.9541 39.521 27.1176L39.5 27.1923L39.4789 27.1176C36.5701 27.9541 34.218 26.4799 32.8656 24.3067C32.1893 23.2201 31.7777 21.976 31.6852 20.8003C31.5925 19.6216 31.822 18.544 32.3854 17.7549C33.0032 16.8899 34.1222 16.3577 35.4792 16.0612C36.7282 15.7882 38.1181 15.7283 39.3563 15.7582L39.3566 15.7668C39.4041 15.7651 39.4519 15.7635 39.5 15.7621Z" fill="#333333"/>
</g>
<g opacity="0.2">
<path fill-rule="evenodd" clip-rule="evenodd" d="M39.5 23.9618C40.7998 23.9243 42.3098 23.979 43.6865 24.2799C45.1158 24.5922 46.4738 25.1856 47.2648 26.2932L46.9396 26.5241L47.2648 26.2932C47.9691 27.2796 48.2152 28.5621 48.1125 29.8683C48.0095 31.1776 47.5546 32.5435 46.8146 33.7325C45.3635 36.0641 42.7596 37.7816 39.5 36.9395C36.2403 37.7816 33.6364 36.0641 32.1853 33.7325C31.4454 32.5435 30.9905 31.1776 30.8875 29.8683C30.7847 28.5621 31.0308 27.2796 31.7352 26.2932L32.0603 26.5241L31.7352 26.2932C32.5262 25.1856 33.8842 24.5922 35.3134 24.2799C36.6902 23.979 38.2001 23.9243 39.5 23.9618ZM39.5 24.7621C39.548 24.7635 39.5958 24.7651 39.6433 24.7668L39.6437 24.7582C40.8819 24.7283 42.2717 24.7882 43.5207 25.0612C44.8778 25.3577 45.9968 25.8899 46.6145 26.7549C47.178 27.544 47.4074 28.6216 47.3147 29.8003C47.2222 30.976 46.8106 32.2201 46.1343 33.3067C44.7819 35.4799 42.4298 36.9541 39.521 36.1176L39.5 36.1923L39.4789 36.1176C36.5701 36.9541 34.218 35.4799 32.8656 33.3067C32.1893 32.2201 31.7777 30.976 31.6852 29.8003C31.5925 28.6216 31.822 27.544 32.3854 26.7549C33.0032 25.8899 34.1222 25.3577 35.4792 25.0612C36.7282 24.7882 38.1181 24.7283 39.3563 24.7582L39.3566 24.7668C39.4041 24.7651 39.4519 24.7635 39.5 24.7621Z" fill="#333333"/>
</g>
<g opacity="0.2">
<path fill-rule="evenodd" clip-rule="evenodd" d="M39.5 32.9618C40.7998 32.9244 42.3098 32.9791 43.6865 33.2799C45.1158 33.5922 46.4738 34.1856 47.2648 35.2933L46.9396 35.5241L47.2648 35.2933C47.9691 36.2797 48.2152 37.5621 48.1125 38.8684C48.0095 40.1777 47.5546 41.5436 46.8146 42.7326C45.3635 45.0642 42.7596 46.7817 39.5 45.9395C36.2403 46.7817 33.6364 45.0642 32.1853 42.7326C31.4454 41.5436 30.9905 40.1777 30.8875 38.8684C30.7847 37.5621 31.0308 36.2797 31.7352 35.2933L32.0603 35.5241L31.7352 35.2933C32.5262 34.1856 33.8842 33.5922 35.3134 33.2799C36.6902 32.9791 38.2001 32.9244 39.5 32.9618ZM39.5 33.7621C39.548 33.7636 39.5958 33.7651 39.6433 33.7668L39.6437 33.7583C40.8819 33.7284 42.2717 33.7883 43.5207 34.0612C44.8778 34.3577 45.9968 34.8899 46.6145 35.755C47.178 36.5441 47.4074 37.6216 47.3147 38.8003C47.2222 39.976 46.8106 41.2202 46.1343 42.3068C44.7819 44.4799 42.4298 45.9542 39.521 45.1177L39.5 45.1924L39.4789 45.1177C36.5701 45.9542 34.218 44.4799 32.8656 42.3068C32.1893 41.2202 31.7777 39.976 31.6852 38.8003C31.5925 37.6216 31.822 36.5441 32.3854 35.755C33.0032 34.8899 34.1222 34.3577 35.4792 34.0612C36.7282 33.7883 38.1181 33.7284 39.3563 33.7583L39.3566 33.7668C39.4041 33.7651 39.4519 33.7636 39.5 33.7621Z" fill="#333333"/>
</g>
<g opacity="0.2">
<path fill-rule="evenodd" clip-rule="evenodd" d="M39.5 41.9618C40.7998 41.9244 42.3098 41.9791 43.6865 42.2799C45.1158 42.5922 46.4738 43.1856 47.2648 44.2933L46.9396 44.5241L47.2648 44.2933C47.9691 45.2797 48.2152 46.5621 48.1125 47.8684C48.0095 49.1777 47.5546 50.5436 46.8146 51.7326C45.3635 54.0642 42.7596 55.7817 39.5 54.9395C36.2403 55.7817 33.6364 54.0642 32.1853 51.7326C31.4454 50.5436 30.9905 49.1777 30.8875 47.8684C30.7847 46.5621 31.0308 45.2797 31.7352 44.2933L32.0603 44.5241L31.7352 44.2933C32.5262 43.1856 33.8842 42.5922 35.3134 42.2799C36.6902 41.9791 38.2001 41.9244 39.5 41.9618ZM39.5 42.7621C39.548 42.7636 39.5958 42.7651 39.6433 42.7668L39.6437 42.7583C40.8819 42.7284 42.2717 42.7883 43.5207 43.0612C44.8778 43.3577 45.9968 43.8899 46.6145 44.755C47.178 45.5441 47.4074 46.6216 47.3147 47.8003C47.2222 48.976 46.8106 50.2202 46.1343 51.3068C44.7819 53.4799 42.4298 54.9542 39.521 54.1177L39.5 54.1924L39.4789 54.1177C36.5701 54.9542 34.218 53.4799 32.8656 51.3068C32.1893 50.2202 31.7777 48.976 31.6852 47.8003C31.5925 46.6216 31.822 45.5441 32.3854 44.755C33.0032 43.8899 34.1222 43.3577 35.4792 43.0612C36.7282 42.7883 38.1181 42.7284 39.3563 42.7583L39.3566 42.7668C39.4041 42.7651 39.4519 42.7636 39.5 42.7621Z" fill="#333333"/>
</g>
<g opacity="0.2">
<path fill-rule="evenodd" clip-rule="evenodd" d="M29.5 41.9618C30.7998 41.9244 32.3098 41.9791 33.6865 42.2799C35.1158 42.5922 36.4738 43.1856 37.2648 44.2933L36.9396 44.5241L37.2648 44.2933C37.9691 45.2797 38.2152 46.5621 38.1125 47.8684C38.0095 49.1777 37.5546 50.5436 36.8146 51.7326C35.3635 54.0642 32.7596 55.7817 29.5 54.9395C26.2403 55.7817 23.6364 54.0642 22.1853 51.7326C21.4454 50.5436 20.9905 49.1777 20.8875 47.8684C20.7847 46.5621 21.0308 45.2797 21.7352 44.2933L22.0603 44.5241L21.7352 44.2933C22.5262 43.1856 23.8842 42.5922 25.3134 42.2799C26.6902 41.9791 28.2001 41.9244 29.5 41.9618ZM29.5 42.7621C29.548 42.7636 29.5958 42.7651 29.6433 42.7668L29.6437 42.7583C30.8819 42.7284 32.2717 42.7883 33.5207 43.0612C34.8778 43.3577 35.9968 43.8899 36.6145 44.755C37.178 45.5441 37.4074 46.6216 37.3147 47.8003C37.2222 48.976 36.8106 50.2202 36.1343 51.3068C34.7819 53.4799 32.4298 54.9542 29.521 54.1177L29.5 54.1924L29.4789 54.1177C26.5701 54.9542 24.218 53.4799 22.8656 51.3068C22.1893 50.2202 21.7777 48.976 21.6852 47.8003C21.5925 46.6216 21.822 45.5441 22.3854 44.755C23.0032 43.8899 24.1222 43.3577 25.4792 43.0612C26.7282 42.7883 28.1181 42.7284 29.3563 42.7583L29.3566 42.7668C29.4041 42.7651 29.4519 42.7636 29.5 42.7621Z" fill="#333333"/>
</g>
<g opacity="0.2">
<path fill-rule="evenodd" clip-rule="evenodd" d="M29.5 31.9618C30.7998 31.9244 32.3098 31.9791 33.6865 32.2799C35.1158 32.5922 36.4738 33.1856 37.2648 34.2933L36.9396 34.5241L37.2648 34.2933C37.9691 35.2797 38.2152 36.5621 38.1125 37.8684C38.0095 39.1777 37.5546 40.5436 36.8146 41.7326C35.3635 44.0642 32.7596 45.7817 29.5 44.9395C26.2403 45.7817 23.6364 44.0642 22.1853 41.7326C21.4454 40.5436 20.9905 39.1777 20.8875 37.8684C20.7847 36.5621 21.0308 35.2797 21.7352 34.2933L22.0603 34.5241L21.7352 34.2933C22.5262 33.1856 23.8842 32.5922 25.3134 32.2799C26.6902 31.9791 28.2001 31.9244 29.5 31.9618ZM29.5 32.7621C29.548 32.7636 29.5958 32.7651 29.6433 32.7668L29.6437 32.7583C30.8819 32.7284 32.2717 32.7883 33.5207 33.0612C34.8778 33.3577 35.9968 33.8899 36.6145 34.755C37.178 35.5441 37.4074 36.6216 37.3147 37.8003C37.2222 38.976 36.8106 40.2202 36.1343 41.3068C34.7819 43.4799 32.4298 44.9542 29.521 44.1177L29.5 44.1924L29.4789 44.1177C26.5701 44.9542 24.218 43.4799 22.8656 41.3068C22.1893 40.2202 21.7777 38.976 21.6852 37.8003C21.5925 36.6216 21.822 35.5441 22.3854 34.755C23.0032 33.8899 24.1222 33.3577 25.4792 33.0612C26.7282 32.7883 28.1181 32.7284 29.3563 32.7583L29.3566 32.7668C29.4041 32.7651 29.4519 32.7636 29.5 32.7621Z" fill="#333333"/>
</g>
<g opacity="0.2">
<path fill-rule="evenodd" clip-rule="evenodd" d="M29.5 21.9618C30.7998 21.9243 32.3098 21.979 33.6865 22.2799C35.1158 22.5922 36.4738 23.1856 37.2648 24.2932L36.9396 24.5241L37.2648 24.2932C37.9691 25.2796 38.2152 26.5621 38.1125 27.8683C38.0095 29.1776 37.5546 30.5435 36.8146 31.7325C35.3635 34.0641 32.7596 35.7816 29.5 34.9395C26.2403 35.7816 23.6364 34.0641 22.1853 31.7325C21.4454 30.5435 20.9905 29.1776 20.8875 27.8683C20.7847 26.5621 21.0308 25.2796 21.7352 24.2932L22.0603 24.5241L21.7352 24.2932C22.5262 23.1856 23.8842 22.5922 25.3134 22.2799C26.6902 21.979 28.2001 21.9243 29.5 21.9618ZM29.5 22.7621C29.548 22.7635 29.5958 22.7651 29.6433 22.7668L29.6437 22.7582C30.8819 22.7283 32.2717 22.7882 33.5207 23.0612C34.8778 23.3577 35.9968 23.8899 36.6145 24.7549C37.178 25.544 37.4074 26.6216 37.3147 27.8003C37.2222 28.976 36.8106 30.2201 36.1343 31.3067C34.7819 33.4799 32.4298 34.9541 29.521 34.1176L29.5 34.1923L29.4789 34.1176C26.5701 34.9541 24.218 33.4799 22.8656 31.3067C22.1893 30.2201 21.7777 28.976 21.6852 27.8003C21.5925 26.6216 21.822 25.544 22.3854 24.7549C23.0032 23.8899 24.1222 23.3577 25.4792 23.0612C26.7282 22.7882 28.1181 22.7283 29.3563 22.7582L29.3566 22.7668C29.4041 22.7651 29.4519 22.7635 29.5 22.7621Z" fill="#333333"/>
</g>
<g opacity="0.2">
<path fill-rule="evenodd" clip-rule="evenodd" d="M19.5 41.9618C20.7998 41.9244 22.3098 41.9791 23.6865 42.2799C25.1158 42.5922 26.4738 43.1856 27.2648 44.2933L26.9396 44.5241L27.2648 44.2933C27.9691 45.2797 28.2152 46.5621 28.1125 47.8684C28.0095 49.1777 27.5546 50.5436 26.8146 51.7326C25.3635 54.0642 22.7596 55.7817 19.5 54.9395C16.2403 55.7817 13.6364 54.0642 12.1853 51.7326C11.4454 50.5436 10.9905 49.1777 10.8875 47.8684C10.7847 46.5621 11.0308 45.2797 11.7352 44.2933L12.0603 44.5241L11.7352 44.2933C12.5262 43.1856 13.8842 42.5922 15.3134 42.2799C16.6902 41.9791 18.2001 41.9244 19.5 41.9618ZM19.5 42.7621C19.548 42.7636 19.5958 42.7651 19.6433 42.7668L19.6437 42.7583C20.8819 42.7284 22.2717 42.7883 23.5207 43.0612C24.8778 43.3577 25.9968 43.8899 26.6145 44.755C27.178 45.5441 27.4074 46.6216 27.3147 47.8003C27.2222 48.976 26.8106 50.2202 26.1343 51.3068C24.7819 53.4799 22.4298 54.9542 19.521 54.1177L19.5 54.1924L19.4789 54.1177C16.5701 54.9542 14.218 53.4799 12.8656 51.3068C12.1893 50.2202 11.7777 48.976 11.6852 47.8003C11.5925 46.6216 11.822 45.5441 12.3854 44.755C13.0032 43.8899 14.1222 43.3577 15.4792 43.0612C16.7282 42.7883 18.1181 42.7284 19.3563 42.7583L19.3566 42.7668C19.4041 42.7651 19.4519 42.7636 19.5 42.7621Z" fill="#333333"/>
</g>
<g opacity="0.2">
<path fill-rule="evenodd" clip-rule="evenodd" d="M19.5 31.9618C20.7998 31.9244 22.3098 31.9791 23.6865 32.2799C25.1158 32.5922 26.4738 33.1856 27.2648 34.2933L26.9396 34.5241L27.2648 34.2933C27.9691 35.2797 28.2152 36.5621 28.1125 37.8684C28.0095 39.1777 27.5546 40.5436 26.8146 41.7326C25.3635 44.0642 22.7596 45.7817 19.5 44.9395C16.2403 45.7817 13.6364 44.0642 12.1853 41.7326C11.4454 40.5436 10.9905 39.1777 10.8875 37.8684C10.7847 36.5621 11.0308 35.2797 11.7352 34.2933L12.0603 34.5241L11.7352 34.2933C12.5262 33.1856 13.8842 32.5922 15.3134 32.2799C16.6902 31.9791 18.2001 31.9244 19.5 31.9618ZM19.5 32.7621C19.548 32.7636 19.5958 32.7651 19.6433 32.7668L19.6437 32.7583C20.8819 32.7284 22.2717 32.7883 23.5207 33.0612C24.8778 33.3577 25.9968 33.8899 26.6145 34.755C27.178 35.5441 27.4074 36.6216 27.3147 37.8003C27.2222 38.976 26.8106 40.2202 26.1343 41.3068C24.7819 43.4799 22.4298 44.9542 19.521 44.1177L19.5 44.1924L19.4789 44.1177C16.5701 44.9542 14.218 43.4799 12.8656 41.3068C12.1893 40.2202 11.7777 38.976 11.6852 37.8003C11.5925 36.6216 11.822 35.5441 12.3854 34.755C13.0032 33.8899 14.1222 33.3577 15.4792 33.0612C16.7282 32.7883 18.1181 32.7284 19.3563 32.7583L19.3566 32.7668C19.4041 32.7651 19.4519 32.7636 19.5 32.7621Z" fill="#333333"/>
</g>
<g opacity="0.2">
<path fill-rule="evenodd" clip-rule="evenodd" d="M9.49996 41.9618C10.7998 41.9244 12.3098 41.9791 13.6865 42.2799C15.1158 42.5922 16.4738 43.1856 17.2648 44.2933L16.9396 44.5241L17.2648 44.2933C17.9691 45.2797 18.2152 46.5621 18.1125 47.8684C18.0095 49.1777 17.5546 50.5436 16.8146 51.7326C15.3635 54.0642 12.7596 55.7817 9.49996 54.9395C6.24033 55.7817 3.63638 54.0642 2.18529 51.7326C1.44536 50.5436 0.990469 49.1777 0.887476 47.8684C0.784719 46.5621 1.0308 45.2797 1.73516 44.2933L2.0603 44.5241L1.73516 44.2933C2.52616 43.1856 3.88416 42.5922 5.3134 42.2799C6.69016 41.9791 8.20008 41.9244 9.49996 41.9618ZM9.49996 42.7621C9.548 42.7636 9.59578 42.7651 9.6433 42.7668L9.64366 42.7583C10.8819 42.7284 12.2717 42.7883 13.5207 43.0612C14.8778 43.3577 15.9968 43.8899 16.6145 44.755C17.178 45.5441 17.4074 46.6216 17.3147 47.8003C17.2222 48.976 16.8106 50.2202 16.1343 51.3068C14.7819 53.4799 12.4298 54.9542 9.52099 54.1177L9.49996 54.1924L9.47894 54.1177C6.57012 54.9542 4.21803 53.4799 2.86558 51.3068C2.18932 50.2202 1.77771 48.976 1.68523 47.8003C1.59251 46.6216 1.82196 45.5441 2.38543 44.755C3.00317 43.8899 4.12216 43.3577 5.47923 43.0612C6.72823 42.7883 8.11806 42.7284 9.35627 42.7583L9.35663 42.7668C9.40415 42.7651 9.45193 42.7636 9.49996 42.7621Z" fill="#333333"/>
</g>
<g opacity="0.2">
<path fill-rule="evenodd" clip-rule="evenodd" d="M49.5 41.9618C50.7998 41.9244 52.3098 41.9791 53.6865 42.2799C55.1158 42.5922 56.4738 43.1856 57.2648 44.2933L56.9396 44.5241L57.2648 44.2933C57.9691 45.2797 58.2152 46.5621 58.1125 47.8684C58.0095 49.1777 57.5546 50.5436 56.8146 51.7326C55.3635 54.0642 52.7596 55.7817 49.5 54.9395C46.2403 55.7817 43.6364 54.0642 42.1853 51.7326C41.4454 50.5436 40.9905 49.1777 40.8875 47.8684C40.7847 46.5621 41.0308 45.2797 41.7352 44.2933L42.0603 44.5241L41.7352 44.2933C42.5262 43.1856 43.8842 42.5922 45.3134 42.2799C46.6902 41.9791 48.2001 41.9244 49.5 41.9618ZM49.5 42.7621C49.548 42.7636 49.5958 42.7651 49.6433 42.7668L49.6437 42.7583C50.8819 42.7284 52.2717 42.7883 53.5207 43.0612C54.8778 43.3577 55.9968 43.8899 56.6145 44.755C57.178 45.5441 57.4074 46.6216 57.3147 47.8003C57.2222 48.976 56.8106 50.2202 56.1343 51.3068C54.7819 53.4799 52.4298 54.9542 49.521 54.1177L49.5 54.1924L49.4789 54.1177C46.5701 54.9542 44.218 53.4799 42.8656 51.3068C42.1893 50.2202 41.7777 48.976 41.6852 47.8003C41.5925 46.6216 41.822 45.5441 42.3854 44.755C43.0032 43.8899 44.1222 43.3577 45.4792 43.0612C46.7282 42.7883 48.1181 42.7284 49.3563 42.7583L49.3566 42.7668C49.4041 42.7651 49.4519 42.7636 49.5 42.7621Z" fill="#333333"/>
</g>
<g opacity="0.2">
<path fill-rule="evenodd" clip-rule="evenodd" d="M49.5 31.9618C50.7998 31.9244 52.3098 31.9791 53.6865 32.2799C55.1158 32.5922 56.4738 33.1856 57.2648 34.2933L56.9396 34.5241L57.2648 34.2933C57.9691 35.2797 58.2152 36.5621 58.1125 37.8684C58.0095 39.1777 57.5546 40.5436 56.8146 41.7326C55.3635 44.0642 52.7596 45.7817 49.5 44.9395C46.2403 45.7817 43.6364 44.0642 42.1853 41.7326C41.4454 40.5436 40.9905 39.1777 40.8875 37.8684C40.7847 36.5621 41.0308 35.2797 41.7352 34.2933L42.0603 34.5241L41.7352 34.2933C42.5262 33.1856 43.8842 32.5922 45.3134 32.2799C46.6902 31.9791 48.2001 31.9244 49.5 31.9618ZM49.5 32.7621C49.548 32.7636 49.5958 32.7651 49.6433 32.7668L49.6437 32.7583C50.8819 32.7284 52.2717 32.7883 53.5207 33.0612C54.8778 33.3577 55.9968 33.8899 56.6145 34.755C57.178 35.5441 57.4074 36.6216 57.3147 37.8003C57.2222 38.976 56.8106 40.2202 56.1343 41.3068C54.7819 43.4799 52.4298 44.9542 49.521 44.1177L49.5 44.1924L49.4789 44.1177C46.5701 44.9542 44.218 43.4799 42.8656 41.3068C42.1893 40.2202 41.7777 38.976 41.6852 37.8003C41.5925 36.6216 41.822 35.5441 42.3854 34.755C43.0032 33.8899 44.1222 33.3577 45.4792 33.0612C46.7282 32.7883 48.1181 32.7284 49.3563 32.7583L49.3566 32.7668C49.4041 32.7651 49.4519 32.7636 49.5 32.7621Z" fill="#333333"/>
</g>
<g opacity="0.2">
<path fill-rule="evenodd" clip-rule="evenodd" d="M49.5 21.9618C50.7998 21.9243 52.3098 21.979 53.6865 22.2799C55.1158 22.5922 56.4738 23.1856 57.2648 24.2932L56.9396 24.5241L57.2648 24.2932C57.9691 25.2796 58.2152 26.5621 58.1125 27.8683C58.0095 29.1776 57.5546 30.5435 56.8146 31.7325C55.3635 34.0641 52.7596 35.7816 49.5 34.9395C46.2403 35.7816 43.6364 34.0641 42.1853 31.7325C41.4454 30.5435 40.9905 29.1776 40.8875 27.8683C40.7847 26.5621 41.0308 25.2796 41.7352 24.2932L42.0603 24.5241L41.7352 24.2932C42.5262 23.1856 43.8842 22.5922 45.3134 22.2799C46.6902 21.979 48.2001 21.9243 49.5 21.9618ZM49.5 22.7621C49.548 22.7635 49.5958 22.7651 49.6433 22.7668L49.6437 22.7582C50.8819 22.7283 52.2717 22.7882 53.5207 23.0612C54.8778 23.3577 55.9968 23.8899 56.6145 24.7549C57.178 25.544 57.4074 26.6216 57.3147 27.8003C57.2222 28.976 56.8106 30.2201 56.1343 31.3067C54.7819 33.4799 52.4298 34.9541 49.521 34.1176L49.5 34.1923L49.4789 34.1176C46.5701 34.9541 44.218 33.4799 42.8656 31.3067C42.1893 30.2201 41.7777 28.976 41.6852 27.8003C41.5925 26.6216 41.822 25.544 42.3854 24.7549C43.0032 23.8899 44.1222 23.3577 45.4792 23.0612C46.7282 22.7882 48.1181 22.7283 49.3563 22.7582L49.3566 22.7668C49.4041 22.7651 49.4519 22.7635 49.5 22.7621Z" fill="#333333"/>
</g>
<g opacity="0.2">
<path fill-rule="evenodd" clip-rule="evenodd" d="M59.5 41.9618C60.7998 41.9244 62.3098 41.9791 63.6865 42.2799C65.1158 42.5922 66.4738 43.1856 67.2648 44.2933L66.9396 44.5241L67.2648 44.2933C67.9691 45.2797 68.2152 46.5621 68.1125 47.8684C68.0095 49.1777 67.5546 50.5436 66.8146 51.7326C65.3635 54.0642 62.7596 55.7817 59.5 54.9395C56.2403 55.7817 53.6364 54.0642 52.1853 51.7326C51.4454 50.5436 50.9905 49.1777 50.8875 47.8684C50.7847 46.5621 51.0308 45.2797 51.7352 44.2933L52.0603 44.5241L51.7352 44.2933C52.5262 43.1856 53.8842 42.5922 55.3134 42.2799C56.6902 41.9791 58.2001 41.9244 59.5 41.9618ZM59.5 42.7621C59.548 42.7636 59.5958 42.7651 59.6433 42.7668L59.6437 42.7583C60.8819 42.7284 62.2717 42.7883 63.5207 43.0612C64.8778 43.3577 65.9968 43.8899 66.6145 44.755C67.178 45.5441 67.4074 46.6216 67.3147 47.8003C67.2222 48.976 66.8106 50.2202 66.1343 51.3068C64.7819 53.4799 62.4298 54.9542 59.521 54.1177L59.5 54.1924L59.4789 54.1177C56.5701 54.9542 54.218 53.4799 52.8656 51.3068C52.1893 50.2202 51.7777 48.976 51.6852 47.8003C51.5925 46.6216 51.822 45.5441 52.3854 44.755C53.0032 43.8899 54.1222 43.3577 55.4792 43.0612C56.7282 42.7883 58.1181 42.7284 59.3563 42.7583L59.3566 42.7668C59.4041 42.7651 59.4519 42.7636 59.5 42.7621Z" fill="#333333"/>
</g>
<g opacity="0.2">
<path fill-rule="evenodd" clip-rule="evenodd" d="M59.5 31.9618C60.7998 31.9244 62.3098 31.9791 63.6865 32.2799C65.1158 32.5922 66.4738 33.1856 67.2648 34.2933L66.9396 34.5241L67.2648 34.2933C67.9691 35.2797 68.2152 36.5621 68.1125 37.8684C68.0095 39.1777 67.5546 40.5436 66.8146 41.7326C65.3635 44.0642 62.7596 45.7817 59.5 44.9395C56.2403 45.7817 53.6364 44.0642 52.1853 41.7326C51.4454 40.5436 50.9905 39.1777 50.8875 37.8684C50.7847 36.5621 51.0308 35.2797 51.7352 34.2933L52.0603 34.5241L51.7352 34.2933C52.5262 33.1856 53.8842 32.5922 55.3134 32.2799C56.6902 31.9791 58.2001 31.9244 59.5 31.9618ZM59.5 32.7621C59.548 32.7636 59.5958 32.7651 59.6433 32.7668L59.6437 32.7583C60.8819 32.7284 62.2717 32.7883 63.5207 33.0612C64.8778 33.3577 65.9968 33.8899 66.6145 34.755C67.178 35.5441 67.4074 36.6216 67.3147 37.8003C67.2222 38.976 66.8106 40.2202 66.1343 41.3068C64.7819 43.4799 62.4298 44.9542 59.521 44.1177L59.5 44.1924L59.4789 44.1177C56.5701 44.9542 54.218 43.4799 52.8656 41.3068C52.1893 40.2202 51.7777 38.976 51.6852 37.8003C51.5925 36.6216 51.822 35.5441 52.3854 34.755C53.0032 33.8899 54.1222 33.3577 55.4792 33.0612C56.7282 32.7883 58.1181 32.7284 59.3563 32.7583L59.3566 32.7668C59.4041 32.7651 59.4519 32.7636 59.5 32.7621Z" fill="#333333"/>
</g>
<g opacity="0.2">
<path fill-rule="evenodd" clip-rule="evenodd" d="M69.5 41.9618C70.7998 41.9244 72.3098 41.9791 73.6865 42.2799C75.1158 42.5922 76.4738 43.1856 77.2648 44.2933L76.9396 44.5241L77.2648 44.2933C77.9691 45.2797 78.2152 46.5621 78.1125 47.8684C78.0095 49.1777 77.5546 50.5436 76.8146 51.7326C75.3635 54.0642 72.7596 55.7817 69.5 54.9395C66.2403 55.7817 63.6364 54.0642 62.1853 51.7326C61.4454 50.5436 60.9905 49.1777 60.8875 47.8684C60.7847 46.5621 61.0308 45.2797 61.7352 44.2933L62.0603 44.5241L61.7352 44.2933C62.5262 43.1856 63.8842 42.5922 65.3134 42.2799C66.6902 41.9791 68.2001 41.9244 69.5 41.9618ZM69.5 42.7621C69.548 42.7636 69.5958 42.7651 69.6433 42.7668L69.6437 42.7583C70.8819 42.7284 72.2717 42.7883 73.5207 43.0612C74.8778 43.3577 75.9968 43.8899 76.6145 44.755C77.178 45.5441 77.4074 46.6216 77.3147 47.8003C77.2222 48.976 76.8106 50.2202 76.1343 51.3068C74.7819 53.4799 72.4298 54.9542 69.521 54.1177L69.5 54.1924L69.4789 54.1177C66.5701 54.9542 64.218 53.4799 62.8656 51.3068C62.1893 50.2202 61.7777 48.976 61.6852 47.8003C61.5925 46.6216 61.822 45.5441 62.3854 44.755C63.0032 43.8899 64.1222 43.3577 65.4792 43.0612C66.7282 42.7883 68.1181 42.7284 69.3563 42.7583L69.3566 42.7668C69.4041 42.7651 69.4519 42.7636 69.5 42.7621Z" fill="#333333"/>
</g>
<g opacity="0.2">
<path fill-rule="evenodd" clip-rule="evenodd" d="M43.3079 1.2429L43.7031 1.30454L43.7751 0.842896L43.3079 0.8429L43.3079 1.2429ZM39.9517 5.95301C39.9499 5.48985 39.9866 5.07827 40.0528 4.71236C41.0611 4.72602 41.8165 4.36298 42.3655 3.86009C42.9241 3.34847 43.2557 2.70547 43.4471 2.20651C43.5437 1.95471 43.6069 1.73335 43.6463 1.57371C43.666 1.49372 43.6798 1.42879 43.6889 1.38274C43.6934 1.35971 43.6968 1.34136 43.6991 1.32818L43.7018 1.31232L43.7026 1.3074L43.7029 1.30571L43.703 1.30506C43.703 1.30479 43.7031 1.30454 43.3079 1.2429C43.3079 0.8429 43.3076 0.8429 43.3072 0.842901L43.3065 0.842902L43.3047 0.84291L43.2998 0.842952L43.2848 0.843215C43.2725 0.843497 43.2557 0.84403 43.2347 0.84503C43.1927 0.84703 43.1339 0.850906 43.061 0.858422C42.9155 0.873432 42.7125 0.90309 42.4747 0.96187C42.0007 1.07905 41.3765 1.31488 40.7947 1.79176C40.233 2.25206 39.7383 2.91266 39.4424 3.85008C38.6629 3.70964 37.6863 3.31783 36.4724 2.52364L36.0344 3.19307C37.2829 4.00992 38.3466 4.45729 39.2558 4.62918C39.1875 5.02929 39.1509 5.46974 39.1526 5.95436C37.9357 5.93607 36.5692 6.00569 35.3134 6.28008C33.8842 6.59238 32.5262 7.18577 31.7352 8.29346L32.0603 8.5243L31.7352 8.29346C31.0308 9.27984 30.7847 10.5623 30.8875 11.8686C30.9905 13.1778 31.4454 14.5438 32.1853 15.7327C33.6364 18.0643 36.2403 19.7818 39.5 18.9397C42.7596 19.7818 45.3635 18.0643 46.8146 15.7327C47.5546 14.5438 48.0095 13.1778 48.1125 11.8686C48.2152 10.5623 47.9691 9.27984 47.2648 8.29346L46.9396 8.5243L47.2648 8.29346C46.4738 7.18577 45.1158 6.59238 43.6865 6.28008C42.4666 6.01351 41.142 5.9402 39.9517 5.95301ZM39.1878 6.75492C39.2242 7.19851 39.2896 7.67422 39.3879 8.18425L40.1734 8.03291C40.0848 7.57297 40.025 7.14703 39.99 6.75252C41.1371 6.74138 42.3869 6.81362 43.5207 7.06136C44.8778 7.3579 45.9968 7.89008 46.6145 8.75514C47.178 9.54423 47.4074 10.6218 47.3147 11.8005C47.2222 12.9762 46.8106 14.2203 46.1343 15.307C44.7819 17.4801 42.4298 18.9543 39.521 18.1178L39.5 18.1925L39.4789 18.1178C36.5701 18.9543 34.218 17.4801 32.8656 15.307C32.1893 14.2203 31.7777 12.9762 31.6852 11.8005C31.5925 10.6218 31.822 9.54423 32.3854 8.75514C33.0032 7.89008 34.1222 7.3579 35.4792 7.06136C36.6719 6.80075 37.993 6.73435 39.1878 6.75492ZM41.8252 3.27017C41.4527 3.61133 40.9532 3.87326 40.2677 3.90865C40.5261 3.20321 40.9113 2.73054 41.3018 2.4105C41.7671 2.02916 42.2727 1.83588 42.6667 1.7385C42.7035 1.7294 42.7392 1.72117 42.7737 1.71372C42.7522 1.7788 42.7278 1.84792 42.7002 1.92C42.5333 2.35498 42.2587 2.8731 41.8252 3.27017Z" fill="#333333"/>
</g>
</svg>
