<svg width="52" height="52" viewBox="0 0 52 52" fill="none" xmlns="http://www.w3.org/2000/svg">
<circle cx="26" cy="26" r="25.5" fill="url(#paint0_linear)" stroke="white"/>
<path d="M20.2226 25.9664C20.1982 23.8317 18.3573 22.25 16.25 22.25C15.7207 22.25 15.2129 22.3559 14.748 22.5438C14.2832 22.3554 13.7792 22.25 13.25 22.25C11.1445 22.25 9.28223 24.3338 9.5947 26.0705C8.37594 26.8684 7.25 28.1352 7.25 29.7045C7.25 32.1881 9.27734 34.1807 11.7499 34.1807C12.3066 34.1807 13.2949 34.0238 13.7821 33.8335C13.7821 33.8335 13.7197 32.3268 12.9042 32.0203C12.4619 31.8541 11.9521 31.8693 11.9463 31.8713C11.6768 31.9443 11.4053 31.7844 11.3339 31.5166C11.2616 31.2488 11.4199 30.9732 11.6865 30.9012C11.7295 30.8894 12.7382 30.627 13.5126 31.2234C14.0459 31.6339 14.3164 32.3146 14.3164 33.2469C14.3164 33.2469 14.3339 34.3513 14.3339 35.1674C14.3339 36.3151 13.9121 39.75 13.9121 39.75H15.7246C15.7246 39.75 15.3652 37.6785 15.3242 36.5171C15.2969 35.7354 15.1835 33.3921 15.1835 33.3921V31.3318C15.1835 30.0013 15.5175 29.0895 16.1777 28.6222C16.7881 28.1896 17.5166 28.2769 17.8516 28.3966C18.1113 28.4898 18.247 28.7772 18.1543 29.038C18.0635 29.2985 17.7793 29.4343 17.5205 29.3446C17.5058 29.3397 17.0586 29.3082 16.7403 29.5648C16.1084 30.0743 15.8964 31.1028 15.8653 31.5107C15.8164 32.1542 15.6778 33.7501 15.6778 33.7501C16.165 33.9404 17.1933 34.1807 17.75 34.1807C20.2227 34.1807 22.25 32.1881 22.25 29.7036C22.25 28.1356 21.4393 26.7639 20.2226 25.9664Z" fill="white"/>
<path d="M42.7226 25.9664C42.6982 23.8317 40.8573 22.25 38.75 22.25C38.2207 22.25 37.7129 22.3559 37.248 22.5438C36.7832 22.3554 36.2792 22.25 35.75 22.25C33.6445 22.25 31.7822 24.3338 32.0947 26.0705C30.8759 26.8684 29.75 28.1352 29.75 29.7045C29.75 32.1881 31.7773 34.1807 34.2499 34.1807C34.8066 34.1807 35.7949 34.0238 36.2821 33.8335C36.2821 33.8335 36.2197 32.3268 35.4042 32.0203C34.9619 31.8541 34.4521 31.8693 34.4463 31.8713C34.1768 31.9443 33.9053 31.7844 33.8339 31.5166C33.7616 31.2488 33.9199 30.9732 34.1865 30.9012C34.2295 30.8894 35.2382 30.627 36.0126 31.2234C36.5459 31.6339 36.8164 32.3146 36.8164 33.2469C36.8164 33.2469 36.8339 34.3513 36.8339 35.1674C36.8339 36.3151 36.4121 39.75 36.4121 39.75H38.2246C38.2246 39.75 37.8652 37.6785 37.8242 36.5171C37.7969 35.7354 37.6835 33.3921 37.6835 33.3921V31.3318C37.6835 30.0013 38.0175 29.0895 38.6777 28.6222C39.2881 28.1896 40.0166 28.2769 40.3516 28.3966C40.6113 28.4898 40.747 28.7772 40.6543 29.038C40.5635 29.2985 40.2793 29.4343 40.0205 29.3446C40.0058 29.3397 39.5586 29.3082 39.2403 29.5648C38.6084 30.0743 38.3964 31.1028 38.3653 31.5107C38.3164 32.1542 38.1778 33.7501 38.1778 33.7501C38.665 33.9404 39.6933 34.1807 40.25 34.1807C42.7227 34.1807 44.75 32.1881 44.75 29.7036C44.75 28.1356 43.9393 26.7639 42.7226 25.9664Z" fill="white"/>
<path d="M22.3516 18.4841C22.3679 17.0679 23.5951 16.0186 25 16.0186C25.3529 16.0186 25.6914 16.0889 26.0013 16.2135C26.3112 16.0886 26.6503 16.0651 27 16.0186C28.5061 15.8186 29.6801 17.268 29.4369 18.5531C30.2494 19.0824 31 19.9228 31 20.9639C31 22.6114 29.6484 23.9333 28 23.9333C27.6289 23.9333 26.9701 23.8292 26.6452 23.703C26.6452 23.703 26.2774 24.0465 26.2774 24.5879C26.2774 25.3492 26.5586 27.6279 26.5586 27.6279H25.3503C25.3503 27.6279 25.5899 26.2537 25.6172 25.4832C25.6354 24.9647 25.3815 23.6477 25.3815 23.6477C25.0567 23.7739 24.3711 23.9333 24 23.9333C22.3516 23.9333 21 22.6114 21 20.9632C21 19.9231 21.5404 19.0131 22.3516 18.4841Z" fill="white"/>
<path d="M15.5947 12.5525C15.6049 11.6674 16.3719 11.0116 17.25 11.0116C17.4705 11.0116 17.6821 11.0556 17.8758 11.1334C18.0695 11.0554 18.2814 11.0407 18.5 11.0116C19.4413 10.8866 20.175 11.7925 20.023 12.5957C20.5309 12.9265 21 13.4517 21 14.1024C21 15.1321 20.1553 15.9583 19.125 15.9583C18.8931 15.9583 18.4813 15.8933 18.2783 15.8144C18.2783 15.8144 18.0484 16.029 18.0484 16.3674C18.0484 16.8433 18.2241 18.2674 18.2241 18.2674H17.4689C17.4689 18.2674 17.6187 17.4085 17.6358 16.927C17.6471 16.6029 17.4884 15.7798 17.4884 15.7798C17.2854 15.8587 16.857 15.9583 16.625 15.9583C15.5947 15.9583 14.75 15.1322 14.75 14.102C14.75 13.4519 15.0878 12.8832 15.5947 12.5525Z" fill="white"/>
<path d="M31.8447 12.5525C31.8549 11.6674 32.622 11.0116 33.5 11.0116C33.7205 11.0116 33.9321 11.0556 34.1258 11.1334C34.3195 11.0554 34.5314 11.0407 34.75 11.0116C35.6913 10.8866 36.425 11.7925 36.273 12.5957C36.7809 12.9265 37.25 13.4517 37.25 14.1024C37.25 15.1321 36.4053 15.9583 35.375 15.9583C35.1431 15.9583 34.7313 15.8933 34.5283 15.8144C34.5283 15.8144 34.2984 16.029 34.2984 16.3674C34.2984 16.8433 34.4741 18.2674 34.4741 18.2674H33.7189C33.7189 18.2674 33.8687 17.4085 33.8858 16.927C33.8971 16.6029 33.7384 15.7798 33.7384 15.7798C33.5354 15.8587 33.107 15.9583 32.875 15.9583C31.8447 15.9583 31 15.1322 31 14.102C31 13.4519 31.3378 12.8832 31.8447 12.5525Z" fill="white"/>
<defs>
<linearGradient id="paint0_linear" x1="26" y1="1" x2="26" y2="51" gradientUnits="userSpaceOnUse">
<stop stop-color="#FF463A"/>
<stop offset="1" stop-color="#FF6E5A"/>
</linearGradient>
</defs>
</svg>
