<svg width="24" height="32" viewBox="0 0 24 32" fill="none" xmlns="http://www.w3.org/2000/svg">
<path opacity="0.7" d="M12 0C5.37287 0 0 5.149 0 11.5C0 14.479 2.112 18.732 3.56557 20.917C5.78296 24.25 12 32 12 32C12 32 18.217 24.25 20.4344 20.917C21.889 18.732 24 14.479 24 11.5C24 5.149 18.6282 0 12 0Z" fill="url(#paint0_linear)"/>
<path d="M16.3781 7.97316C16.3585 6.26533 14.8858 5 13.2 5C12.7766 5 12.3703 5.08475 11.9984 5.23501C11.6265 5.08434 11.2234 5 10.8 5C9.11559 5 7.62579 6.66707 7.87576 8.05637C6.90075 8.69472 6 9.70814 6 10.9636C6 12.9505 7.62187 14.5445 9.59995 14.5445C10.0453 14.5445 10.8359 14.419 11.2257 14.2668C11.2257 14.2668 11.1758 13.0615 10.5234 12.8163C10.1695 12.6833 9.76164 12.6955 9.75705 12.697C9.54142 12.7554 9.32425 12.6275 9.26715 12.4133C9.20931 12.1991 9.33595 11.9786 9.54921 11.9209C9.58356 11.9115 10.3906 11.7016 11.0101 12.1787C11.4368 12.5071 11.6531 13.0517 11.6531 13.7975C11.6531 13.7975 11.6672 14.681 11.6672 15.334C11.6672 16.252 11.3297 19 11.3297 19H12.7797C12.7797 19 12.4921 17.3428 12.4593 16.4136C12.4375 15.7883 12.3468 13.9137 12.3468 13.9137V12.2654C12.3468 11.201 12.614 10.4716 13.1422 10.0977C13.6305 9.75165 14.2132 9.82155 14.4813 9.91727C14.689 9.99182 14.7976 10.2217 14.7234 10.4304C14.6508 10.6388 14.4235 10.7475 14.2164 10.6756C14.2046 10.6717 13.8469 10.6466 13.5922 10.8518C13.0867 11.2595 12.9171 12.0822 12.8922 12.4086C12.8531 12.9234 12.7422 14.2001 12.7422 14.2001C13.132 14.3523 13.9547 14.5446 14.4 14.5446C16.3781 14.5446 18 12.9505 18 10.9629C18 9.7085 17.3515 8.61114 16.3781 7.97316Z" fill="white"/>
<defs>
<linearGradient id="paint0_linear" x1="12" y1="0" x2="12" y2="32" gradientUnits="userSpaceOnUse">
<stop stop-color="#FF463A"/>
<stop offset="1" stop-color="#FF6E5A"/>
</linearGradient>
</defs>
</svg>
