<svg width="36" height="36" viewBox="0 0 36 36" fill="none" xmlns="http://www.w3.org/2000/svg">
<circle opacity="0.7" cx="18" cy="18" r="18" fill="url(#paint0_linear)"/>
<path d="M13.8403 17.9766C13.8227 16.4396 12.4973 15.3008 10.98 15.3008C10.5989 15.3008 10.2333 15.3771 9.89857 15.5123C9.56387 15.3767 9.20104 15.3008 8.82 15.3008C7.30403 15.3008 5.96321 16.8011 6.18818 18.0515C5.31068 18.626 4.5 19.5381 4.5 20.668C4.5 22.4562 5.95968 23.8909 7.73995 23.8909C8.14073 23.8909 8.85229 23.7779 9.20314 23.6409C9.20314 23.6409 9.15821 22.5561 8.57103 22.3354C8.25257 22.2158 7.88548 22.2267 7.88134 22.2281C7.68728 22.2807 7.49182 22.1655 7.44044 21.9727C7.38838 21.7799 7.50236 21.5815 7.69429 21.5296C7.72521 21.5212 8.45153 21.3322 9.0091 21.7616C9.39308 22.0572 9.58779 22.5473 9.58779 23.2185C9.58779 23.2185 9.60044 24.0137 9.60044 24.6013C9.60044 25.4276 9.29674 27.9008 9.29674 27.9008H10.6017C10.6017 27.9008 10.3429 26.4093 10.3134 25.5731C10.2937 25.0103 10.2121 23.3231 10.2121 23.3231V21.8396C10.2121 20.8817 10.4526 20.2253 10.928 19.8887C11.3674 19.5773 11.8919 19.6402 12.1332 19.7263C12.3201 19.7934 12.4178 20.0003 12.3511 20.1882C12.2857 20.3757 12.0811 20.4735 11.8948 20.4089C11.8842 20.4053 11.5622 20.3827 11.333 20.5674C10.878 20.9343 10.7254 21.6748 10.703 21.9685C10.6678 22.4318 10.568 23.5809 10.568 23.5809C10.9188 23.7178 11.6592 23.8909 12.06 23.8909C13.8403 23.8909 15.3 22.4562 15.3 20.6674C15.3 19.5384 14.7163 18.5508 13.8403 17.9766Z" fill="white"/>
<path d="M30.0402 17.9766C30.0226 16.4396 28.6972 15.3008 27.18 15.3008C26.7989 15.3008 26.4332 15.3771 26.0985 15.5123C25.7638 15.3767 25.401 15.3008 25.02 15.3008C23.504 15.3008 22.1632 16.8011 22.3881 18.0515C21.5106 18.626 20.7 19.5381 20.7 20.668C20.7 22.4562 22.1596 23.8909 23.9399 23.8909C24.3407 23.8909 25.0522 23.7779 25.4031 23.6409C25.4031 23.6409 25.3582 22.5561 24.771 22.3354C24.4525 22.2158 24.0854 22.2267 24.0813 22.2281C23.8872 22.2807 23.6918 22.1655 23.6404 21.9727C23.5883 21.7799 23.7023 21.5815 23.8942 21.5296C23.9252 21.5212 24.6515 21.3322 25.2091 21.7616C25.593 22.0572 25.7877 22.5473 25.7877 23.2185C25.7877 23.2185 25.8004 24.0137 25.8004 24.6013C25.8004 25.4276 25.4967 27.9008 25.4967 27.9008H26.8016C26.8016 27.9008 26.5429 26.4093 26.5133 25.5731C26.4937 25.0103 26.4121 23.3231 26.4121 23.3231V21.8396C26.4121 20.8817 26.6526 20.2253 27.1279 19.8887C27.5674 19.5773 28.0919 19.6402 28.3331 19.7263C28.5201 19.7934 28.6178 20.0003 28.5511 20.1882C28.4856 20.3757 28.2811 20.4735 28.0947 20.4089C28.0841 20.4053 27.7621 20.3827 27.5329 20.5674C27.078 20.9343 26.9254 21.6748 26.9029 21.9685C26.8678 22.4318 26.7679 23.5809 26.7679 23.5809C27.1188 23.7178 27.8591 23.8909 28.2599 23.8909C30.0403 23.8909 31.5 22.4562 31.5 20.6674C31.4999 19.5384 30.9163 18.5508 30.0402 17.9766Z" fill="white"/>
<path d="M15.3732 12.5893C15.385 11.5697 16.2686 10.8142 17.2801 10.8142C17.5342 10.8142 17.7779 10.8648 18.001 10.9545C18.2242 10.8645 18.4683 10.8476 18.7201 10.8142C19.8045 10.6701 20.6497 11.7137 20.4746 12.639C21.0596 13.0201 21.6001 13.6252 21.6001 14.3748C21.6001 15.561 20.627 16.5128 19.4401 16.5128C19.1729 16.5128 18.6986 16.4378 18.4647 16.3469C18.4647 16.3469 18.1998 16.5942 18.1998 16.9841C18.1998 17.5322 18.4023 19.1729 18.4023 19.1729H17.5323C17.5323 19.1729 17.7048 18.1834 17.7245 17.6287C17.7376 17.2553 17.5548 16.3071 17.5548 16.3071C17.3209 16.398 16.8273 16.5128 16.5601 16.5128C15.3732 16.5128 14.4001 15.561 14.4001 14.3743C14.4001 13.6254 14.7892 12.9702 15.3732 12.5893Z" fill="white"/>
<path d="M10.5081 8.31705C10.5154 7.67976 11.0677 7.2076 11.6999 7.2076C11.8587 7.2076 12.011 7.23923 12.1505 7.2953C12.29 7.23907 12.4425 7.2285 12.5999 7.2076C13.2776 7.11757 13.8059 7.7698 13.6965 8.3481C14.0621 8.58631 14.3999 8.96447 14.3999 9.43296C14.3999 10.1744 13.7917 10.7692 13.0499 10.7692C12.8829 10.7692 12.5864 10.7224 12.4403 10.6656C12.4403 10.6656 12.2747 10.8201 12.2747 11.0638C12.2747 11.4064 12.4013 12.4318 12.4013 12.4318H11.8575C11.8575 12.4318 11.9654 11.8134 11.9777 11.4667C11.9858 11.2333 11.8716 10.6407 11.8716 10.6407C11.7254 10.6975 11.4169 10.7692 11.2499 10.7692C10.5081 10.7692 9.8999 10.1744 9.8999 9.43268C9.8999 8.9646 10.1431 8.55512 10.5081 8.31705Z" fill="white"/>
<path d="M22.2083 8.31705C22.2156 7.67976 22.7679 7.2076 23.4001 7.2076C23.5589 7.2076 23.7112 7.23923 23.8507 7.2953C23.9901 7.23907 24.1427 7.2285 24.3001 7.2076C24.9778 7.11757 25.5061 7.7698 25.3967 8.3481C25.7623 8.58631 26.1001 8.96447 26.1001 9.43296C26.1001 10.1744 25.4919 10.7692 24.7501 10.7692C24.5831 10.7692 24.2866 10.7224 24.1405 10.6656C24.1405 10.6656 23.9749 10.8201 23.9749 11.0638C23.9749 11.4064 24.1015 12.4318 24.1015 12.4318H23.5577C23.5577 12.4318 23.6656 11.8134 23.6779 11.4667C23.686 11.2333 23.5718 10.6407 23.5718 10.6407C23.4256 10.6975 23.1171 10.7692 22.9501 10.7692C22.2083 10.7692 21.6001 10.1744 21.6001 9.43268C21.6001 8.9646 21.8433 8.55512 22.2083 8.31705Z" fill="white"/>
<defs>
<linearGradient id="paint0_linear" x1="18" y1="0" x2="18" y2="36" gradientUnits="userSpaceOnUse">
<stop stop-color="#FF463A"/>
<stop offset="1" stop-color="#FF6E5A"/>
</linearGradient>
</defs>
</svg>
